/* XPM */
static char * harddisk_icon_20_xpm[] = {
"20 20 2 1",
" 	c None",
".	c #EFF0F1",
"                    ",
"                    ",
"                    ",
"    ............    ",
"    ..        ..    ",
"    .          .    ",
"    .          .    ",
"    .          .    ",
"    ..        ..    ",
"    ..        ..    ",
"    .          .    ",
"    .          .    ",
"    .          .    ",
"    ..        ..    ",
"    ............    ",
"    .     ...  .    ",
"    ............    ",
"    ............    ",
"                    ",
"                    "};
