/* XPM */
static char * haskell_20_xpm[] = {
"20 20 2 1",
" 	c None",
".	c #FFFFFF",
"                    ",
"                    ",
"                    ",
".... ....           ",
" .... ...           ",
"  ... ....          ",
"  .... ....         ",
"   .... ... ........",
"    ... .... .......",
"    .... ....       ",
"    .... ....       ",
"    ... ...... .....",
"   .... ....... ....",
"  .... .... ...     ",
"  ... ....  ....    ",
" .... ...    ....   ",
".... ....     ...   ",
"                    ",
"                    ",
"                    "};
